<svg width="200" height="196" viewBox="0 0 200 196" fill="none" xmlns="http://www.w3.org/2000/svg">
<path d="M196.917 125.5C191 119.292 178.867 115.75 161.717 115.75C152.55 115.75 141.908 116.633 130.375 118.7C123.309 111.905 116.874 104.483 111.15 96.525C106.717 90.6083 102.867 84.1083 99.3165 77.8917C106.125 57.1917 109.375 40.3333 109.375 28.2083C109.375 14.6083 104.35 0.408325 89.8582 0.408325C85.4249 0.408325 80.9832 3.07499 78.6165 6.91666C72.1165 18.45 75.0749 43.5833 86.3082 68.425C82.0801 81.1286 77.3457 93.658 72.1165 105.983C67.3832 117.225 62.0582 128.758 56.1415 139.4C23.6165 152.417 2.61653 167.5 0.24986 179.317C-0.633473 183.758 0.841527 187.9 4.09986 191.15C5.28319 192.042 9.42486 195.592 16.5165 195.592C38.0999 195.592 60.8749 160.692 72.4082 139.7C81.2832 136.742 90.1582 133.783 99.0249 131.417C108.38 128.876 117.855 126.804 127.417 125.208C150.183 145.608 170.292 148.867 180.35 148.867C192.767 148.867 197.208 143.833 198.683 139.7C201.35 134.367 199.575 128.458 196.917 125.5ZM185.083 134.083C184.192 138.517 179.75 141.475 173.55 141.475C171.775 141.475 170.3 141.175 168.517 140.883C157.283 138.217 146.633 132.6 135.992 123.725C144.196 122.338 152.504 121.646 160.825 121.658C167.042 121.658 172.367 121.95 175.908 122.842C180.05 123.725 186.558 126.392 185.075 134.075L185.083 134.083ZM122.383 120.183C114.131 121.73 105.944 123.603 97.8415 125.8C90.7749 127.637 83.7711 129.708 76.8415 132.008C80.4437 125.032 83.7986 117.93 86.8999 110.717C90.4499 102.433 93.3999 93.8583 96.3665 85.875C99.3165 90.9 102.575 95.9333 105.825 100.367C111.139 107.141 116.661 113.75 122.383 120.183ZM83.6499 10.1667C84.1726 9.11905 84.9726 8.2349 85.963 7.61044C86.9533 6.98597 88.0959 6.64512 89.2665 6.62499C95.4749 6.62499 96.6582 13.7167 96.6582 19.3417C96.6582 28.8 93.6999 43.2917 88.6749 59.85C80.0915 36.7833 79.5082 17.5667 83.6499 10.1667ZM51.1165 147.975C36.0332 172.817 21.5415 188.192 12.6749 188.192C11.075 188.201 9.51664 187.683 8.24153 186.717C6.46653 184.942 5.57486 182.875 6.16653 180.508C7.94153 171.633 25.0915 159.217 51.1165 147.975Z" fill="#FF0B00"/>
</svg>
