<svg width="115" height="76" viewBox="0 0 115 76" fill="none" xmlns="http://www.w3.org/2000/svg">
<path d="M33.8665 1.27273H46.9347V52.4091C46.911 57.0966 45.9167 61.133 43.9517 64.5185C41.9867 67.8802 39.2405 70.4725 35.7131 72.2955C32.2093 74.0947 28.1255 74.9943 23.4616 74.9943C19.2003 74.9943 15.3651 74.2367 11.956 72.7216C8.57055 71.1828 5.88352 68.91 3.89489 65.9034C1.90625 62.8968 0.911932 59.1562 0.911932 54.6818H14.0156C14.0393 56.6468 14.4654 58.3395 15.294 59.7599C16.1463 61.1804 17.3182 62.2694 18.8097 63.027C20.3011 63.7846 22.0175 64.1634 23.9588 64.1634C26.0658 64.1634 27.8532 63.7254 29.321 62.8494C30.7888 61.9498 31.9015 60.6241 32.6591 58.8722C33.4403 57.1203 33.8428 54.9659 33.8665 52.4091V1.27273ZM100.752 21.2656C100.421 18.1643 99.0239 15.7495 96.5618 14.0213C94.1233 12.2931 90.951 11.429 87.0447 11.429C84.2985 11.429 81.9429 11.8433 79.978 12.6719C78.013 13.5005 76.5097 14.625 75.468 16.0455C74.4264 17.4659 73.8937 19.0876 73.87 20.9105C73.87 22.4257 74.2133 23.7396 74.8999 24.8523C75.6101 25.965 76.5689 26.9119 77.7763 27.6932C78.9837 28.4508 80.3213 29.09 81.7891 29.6108C83.2569 30.1316 84.7365 30.5696 86.228 30.9247L93.0462 32.6293C95.7924 33.2685 98.4321 34.1326 100.965 35.2216C103.522 36.3106 105.807 37.6837 107.819 39.3409C109.855 40.9981 111.465 42.9986 112.648 45.3423C113.832 47.6861 114.424 50.4323 114.424 53.581C114.424 57.8423 113.335 61.5947 111.157 64.8381C108.979 68.0578 105.83 70.5791 101.711 72.402C97.6153 74.2012 92.6555 75.1009 86.8317 75.1009C81.1735 75.1009 76.2611 74.2249 72.0945 72.473C67.9515 70.7211 64.7081 68.1643 62.3643 64.8026C60.0443 61.4408 58.7895 57.3452 58.6001 52.5156H71.5618C71.7512 55.0488 72.5324 57.1558 73.9055 58.8366C75.2786 60.5175 77.0661 61.7723 79.2678 62.6009C81.4931 63.4295 83.9789 63.8438 86.7251 63.8438C89.5897 63.8438 92.0992 63.4176 94.2536 62.5653C96.4316 61.6894 98.1361 60.482 99.3672 58.9432C100.598 57.3807 101.226 55.5578 101.249 53.4744C101.226 51.5805 100.669 50.018 99.5803 48.7869C98.4912 47.5322 96.9643 46.4905 94.9993 45.6619C93.058 44.8097 90.7853 44.0521 88.1811 43.3892L79.907 41.2585C73.9174 39.7197 69.1825 37.3878 65.7024 34.2628C62.246 31.1141 60.5178 26.9356 60.5178 21.7273C60.5178 17.4422 61.6778 13.6899 63.9979 10.4702C66.3416 7.25047 69.5258 4.75284 73.5504 2.97727C77.575 1.17803 82.1323 0.278406 87.2223 0.278406C92.3833 0.278406 96.9051 1.17803 100.788 2.97727C104.694 4.75284 107.76 7.2268 109.985 10.3991C112.21 13.5478 113.359 17.17 113.43 21.2656H100.752Z" fill="#F7DF1E"/>
</svg>
