<svg width="98" height="91" viewBox="0 0 98 91" fill="none" xmlns="http://www.w3.org/2000/svg">
<path d="M0.302557 45.5966V39.3821C4.32718 39.3821 7.13258 38.5653 8.71875 36.9318C10.3286 35.2746 11.1335 32.5876 11.1335 28.8707V19.8153C11.1335 15.8144 11.6307 12.5355 12.625 9.97869C13.643 7.42187 15.1226 5.43324 17.0639 4.01278C19.0052 2.59233 21.3726 1.60985 24.1662 1.06534C26.9598 0.497158 30.1321 0.213069 33.6832 0.213069V10.0852C30.8897 10.0852 28.7472 10.4759 27.2557 11.2571C25.7642 12.0147 24.7344 13.1866 24.1662 14.7727C23.6217 16.3589 23.3494 18.383 23.3494 20.8452V32.4929C23.3494 34.3158 23.0417 36.0204 22.4261 37.6065C21.8106 39.1927 20.6861 40.5895 19.0526 41.7969C17.419 42.9806 15.0871 43.9157 12.0568 44.6023C9.05019 45.2652 5.1321 45.5966 0.302557 45.5966ZM33.6832 90.4474C30.1321 90.4474 26.9598 90.1634 24.1662 89.5952C21.3726 89.0507 19.0052 88.0682 17.0639 86.6477C15.1226 85.2273 13.643 83.2386 12.625 80.6818C11.6307 78.125 11.1335 74.8461 11.1335 70.8452V61.8253C11.1335 58.1084 10.3286 55.4332 8.71875 53.7997C7.13258 52.1425 4.32718 51.3139 0.302557 51.3139V45.0994C5.1321 45.0994 9.05019 45.4427 12.0568 46.1293C15.0871 46.7921 17.419 47.7273 19.0526 48.9347C20.6861 50.1184 21.8106 51.5033 22.4261 53.0895C23.0417 54.6757 23.3494 56.3684 23.3494 58.1676V69.8153C23.3494 72.2775 23.6217 74.3016 24.1662 75.8878C24.7344 77.474 25.7642 78.6577 27.2557 79.4389C28.7472 80.2202 30.8897 80.6108 33.6832 80.6108V90.4474ZM0.302557 51.3139V39.3821H11.5597V51.3139H0.302557ZM97.2042 45.0994V51.3139C93.1796 51.3139 90.3623 52.1425 88.7525 53.7997C87.1663 55.4332 86.3732 58.1084 86.3732 61.8253V70.8452C86.3732 74.8461 85.8642 78.125 84.8462 80.6818C83.8519 83.2386 82.3841 85.2273 80.4428 86.6477C78.5015 88.0682 76.1341 89.0507 73.3406 89.5952C70.547 90.1634 67.3746 90.4474 63.8235 90.4474V80.6108C66.6171 80.6108 68.7596 80.2202 70.2511 79.4389C71.7425 78.6577 72.7605 77.474 73.305 75.8878C73.8732 74.3016 74.1573 72.2775 74.1573 69.8153V58.1676C74.1573 56.3684 74.4651 54.6757 75.0806 53.0895C75.6961 51.5033 76.8207 50.1184 78.4542 48.9347C80.0877 47.7273 82.4078 46.7921 85.4144 46.1293C88.4447 45.4427 92.3746 45.0994 97.2042 45.0994ZM63.8235 0.213069C67.3746 0.213069 70.547 0.497158 73.3406 1.06534C76.1341 1.60985 78.5015 2.59233 80.4428 4.01278C82.3841 5.43324 83.8519 7.42187 84.8462 9.97869C85.8642 12.5355 86.3732 15.8144 86.3732 19.8153V28.8707C86.3732 32.5876 87.1663 35.2746 88.7525 36.9318C90.3623 38.5653 93.1796 39.3821 97.2042 39.3821V45.5966C92.3746 45.5966 88.4447 45.2652 85.4144 44.6023C82.4078 43.9157 80.0877 42.9806 78.4542 41.7969C76.8207 40.5895 75.6961 39.1927 75.0806 37.6065C74.4651 36.0204 74.1573 34.3158 74.1573 32.4929V20.8452C74.1573 18.383 73.8732 16.3589 73.305 14.7727C72.7605 13.1866 71.7425 12.0147 70.2511 11.2571C68.7596 10.4759 66.6171 10.0852 63.8235 10.0852V0.213069ZM97.2042 39.3821V51.3139H85.9471V39.3821H97.2042Z" fill="#F7DF1E"/>
</svg>
