<svg width="25" height="27" viewBox="0 0 25 27" fill="none" xmlns="http://www.w3.org/2000/svg">
<path d="M14.1716 3H10C8.11438 3 7.17157 3 6.58579 3.58579C6 4.17157 6 5.11438 6 7V17C6 18.8856 6 19.8284 6.58579 20.4142C7.17157 21 8.11438 21 10 21H16C17.8856 21 18.8284 21 19.4142 20.4142C20 19.8284 20 18.8856 20 17V8.82843C20 8.41968 20 8.2153 19.9239 8.03153C19.8478 7.84776 19.7032 7.70324 19.4142 7.41421L15.5858 3.58579C15.2968 3.29676 15.1522 3.15224 14.9685 3.07612C14.7847 3 14.5803 3 14.1716 3Z" stroke="#898989" stroke-width="2"/>
<path d="M14 3V7C14 7.94281 14 8.41421 14.2929 8.70711C14.5858 9 15.0572 9 16 9H20" stroke="#898989" stroke-width="2"/>
<path fill-rule="evenodd" clip-rule="evenodd" d="M5 7H3C1.34315 7 0 8.34315 0 10V24C0 25.6569 1.34315 27 3 27H13C14.6569 27 16 25.6569 16 24V22H14V24C14 24.5523 13.5523 25 13 25H3C2.44772 25 2 24.5523 2 24V10C2 9.44772 2.44771 9 3 9H5V7Z" fill="#898989"/>
</svg>
