<svg width="77" height="75" viewBox="0 0 77 75" fill="none" xmlns="http://www.w3.org/2000/svg">
<path fill-rule="evenodd" clip-rule="evenodd" d="M38.3333 0C17.1542 0 0 17.1542 0 38.3333C0 55.2958 10.9729 69.6229 26.2104 74.7021C28.1271 75.0375 28.8458 73.8875 28.8458 72.8812C28.8458 71.9708 28.7979 68.9521 28.7979 65.7417C19.1667 67.5146 16.675 63.3937 15.9083 61.2375C15.4771 60.1354 13.6083 56.7333 11.9792 55.8229C10.6375 55.1042 8.72083 53.3312 11.9313 53.2833C14.95 53.2354 17.1063 56.0625 17.825 57.2125C21.275 63.0104 26.7854 61.3812 28.9896 60.375C29.325 57.8833 30.3313 56.2062 31.4333 55.2479C22.9042 54.2896 13.9917 50.9833 13.9917 36.3208C13.9917 32.1521 15.4771 28.7021 17.9208 26.0187C17.5375 25.0604 16.1958 21.1312 18.3042 15.8604C18.3042 15.8604 21.5146 14.8542 28.8458 19.7896C31.9125 18.9271 35.1708 18.4958 38.4292 18.4958C41.6875 18.4958 44.9458 18.9271 48.0125 19.7896C55.3438 14.8062 58.5542 15.8604 58.5542 15.8604C60.6625 21.1312 59.3208 25.0604 58.9375 26.0187C61.3813 28.7021 62.8667 32.1042 62.8667 36.3208C62.8667 51.0312 53.9063 54.2896 45.3771 55.2479C46.7667 56.4458 47.9646 58.7458 47.9646 62.3396C47.9646 67.4667 47.9167 71.5875 47.9167 72.8812C47.9167 73.8875 48.6354 75.0854 50.5521 74.7021C65.6938 69.6229 76.6667 55.2479 76.6667 38.3333C76.6667 17.1542 59.5125 0 38.3333 0V0Z" fill="#898989"/>
</svg>
