<svg width="512" height="512" viewBox="0 0 512 512" fill="none" xmlns="http://www.w3.org/2000/svg">
<path d="M504.441 172.066L467.935 135.56C457.857 125.482 441.507 125.482 431.429 135.56L230.623 336.358C227.781 339.191 225.648 342.647 224.385 346.453L206.132 401.211C205.219 403.959 204.929 406.783 204.954 409.591H179.439H51.202V435.191H186.293H230.402V435.037C233.209 435.063 236.034 434.781 238.782 433.859L293.54 415.606C297.346 414.335 300.802 412.201 303.635 409.368L504.433 208.57C514.519 198.502 514.519 182.153 504.441 172.066ZM230.623 409.378L248.876 354.62L285.382 391.126L230.623 409.378ZM303.643 372.873L267.129 336.359L449.683 153.814L486.189 190.32L303.643 372.873Z" fill="#898989"/>
<path d="M137.73 51.2C95.379 51.2 60.9301 85.649 60.9301 128C60.9301 170.351 95.379 204.8 137.73 204.8C180.081 204.8 214.53 170.351 214.53 128C214.53 85.649 180.081 51.2 137.73 51.2ZM137.73 179.2C109.451 179.2 86.5301 156.279 86.5301 128C86.5301 99.721 109.451 76.8 137.73 76.8C166.009 76.8 188.93 99.721 188.93 128C188.93 156.279 166.009 179.2 137.73 179.2Z" fill="#898989"/>
<path d="M214.12 225.826C211.901 213.649 201.303 204.8 188.93 204.8H137.73H86.53C74.157 204.8 63.558 213.649 61.348 225.826L51.202 281.6H77.22L86.53 230.4H124.93V281.6H150.53V230.4H188.93L198.24 281.6H224.258L214.12 225.826Z" fill="#898989"/>
<path d="M384.002 76.8H230.402V102.4H384.002V76.8Z" fill="#898989"/>
<path d="M51.202 332.8V358.4H193.419L200.101 338.347C200.758 336.393 201.833 334.644 202.712 332.8H51.202Z" fill="#898989"/>
<path d="M230.402 153.6V179.2H351.583L377.183 153.6H230.402Z" fill="#898989"/>
<path d="M413.331 117.444C419.501 111.274 427.053 107.093 435.202 104.704V0H0.00195312V512H435.202V314.027L409.602 339.627V486.4H25.602V25.6H409.602V121.173L413.331 117.444Z" fill="#898989"/>
</svg>
